Coordinates
version=1
nRows=10
nColumns=40
inDegrees=yes

Units are S.I. units (second, meters, Newtons, ...)
If the header above contains a line with 'inDegrees', this indicates whether rotational values are in degrees (yes) or radians (no).

endheader
time	pelvis_tilt	pelvis_list	pelvis_rotation	pelvis_tx	pelvis_ty	pelvis_tz	hip_flexion_r	hip_adduction_r	hip_rotation_r	knee_angle_r	knee_angle_r_beta	ankle_angle_r	subtalar_angle_r	mtp_angle_r	hip_flexion_l	hip_adduction_l	hip_rotation_l	knee_angle_l	knee_angle_l_beta	ankle_angle_l	subtalar_angle_l	mtp_angle_l	lumbar_extension	lumbar_bending	lumbar_rotation	arm_flex_r	arm_add_r	arm_rot_r	elbow_flex_r	pro_sup_r	wrist_flex_r	wrist_dev_r	arm_flex_l	arm_add_l	arm_rot_l	elbow_flex_l	pro_sup_l	wrist_flex_l	wrist_dev_l
      4.03000000	      6.88552986	     -2.98417657	     85.52920508	      0.23812746	      0.90162740	     -0.14618731	    -16.10988056	      5.35302753	    -10.10908008	      7.97861901	      0.13925317	      7.25406352	      6.70335764	      0.00000000	     29.91983016	    -13.97825712	    -26.64259637	      7.11556864	      0.12419010	      0.75255555	     18.51017602	      0.00000000	      0.00000000	      0.00000000	      0.00000000	     37.69546283	    -14.85029817	     37.69546283	     77.50110502	     44.61477935	      0.00000000	      0.00000000	     37.69546283	    -14.85029817	     37.69546283	     77.50110502	     44.61477935	      0.00000000	      0.00000000
      4.03500000	      6.83464646	     -3.05161103	     85.55482284	      0.23705454	      0.90052108	     -0.15347684	    -16.39893783	      5.14670483	     -9.92692161	      8.19804903	      0.14308295	      7.01868012	      6.76675963	      0.00000000	     30.04108456	    -13.83884666	    -26.53801643	      7.16944627	      0.12513044	      0.67091533	     18.51619058	      0.00000000	      0.00000000	      0.00000000	      0.00000000	     37.69600491	    -14.85031646	     37.69600491	     77.50050597	     44.61503496	      0.00000000	      0.00000000	     37.69600491	    -14.85031646	     37.69600491	     77.50050597	     44.61503496	      0.00000000	      0.00000000
      4.04000000	      5.87218271	     -2.47747865	     85.06359041	      0.23685466	      0.90073434	     -0.16107769	    -17.04583535	      3.69580874	    -10.29609117	      8.97722209	      0.15668208	      6.98663849	      7.23883572	      0.00000000	     28.84389425	    -12.80046879	    -27.13667990	      6.45571800	      0.11267353	      0.00385223	     17.79762710	      0.00000000	      0.00000000	      0.00000000	      0.00000000	     37.72099719	    -14.85115969	     37.72099719	     77.47294525	     44.62669298	      0.00000000	      0.00000000	     37.72099719	    -14.85115969	     37.72099719	     77.47294525	     44.62669298	      0.00000000	      0.00000000
      4.04500000	      5.63521528	     -2.40356714	     84.98377243	      0.23603103	      0.90001683	     -0.16857079	    -17.40778310	      3.24224271	    -10.24503701	      9.30309444	      0.16236963	      6.60099643	      7.18283062	      0.00000000	     28.76876431	    -12.56264282	    -27.22796539	      6.77914346	      0.11831837	     -0.18026703	     17.31750621	      0.00000000	      0.00000000	      0.00000000	      0.00000000	     37.72469077	    -14.85128414	     37.72469077	     77.46889070	     44.62838870	      0.00000000	      0.00000000	     37.72469077	    -14.85128414	     37.72469077	     77.46889070	     44.62838870	      0.00000000	      0.00000000
      4.05000000	      4.92245823	     -1.98759325	     84.58210377	      0.23582393	      0.90001772	     -0.17621769	    -17.98898444	      2.14073292	    -10.18619991	      9.86284731	      0.17213916	      6.46721879	      7.33259582	      0.00000000	     27.95160353	    -11.85493742	    -27.57579859	      6.62937028	      0.11570434	     -0.68645831	     16.53909823	      0.00000000	      0.00000000	      0.00000000	      0.00000000	     37.74345799	    -14.85191594	     37.74345799	     77.44835363	     44.63690590	      0.00000000	      0.00000000	     37.74345799	    -14.85191594	     37.74345799	     77.44835363	     44.63690590	      0.00000000	      0.00000000
      4.05500000	      4.33766222	     -1.64050015	     84.32737222	      0.23538515	      0.89991830	     -0.18389024	    -18.52625793	      1.22343927	    -10.18538603	     10.35348529	      0.18070241	      6.11668466	      7.42073017	      0.00000000	     27.37981159	    -11.28407593	    -27.81161756	      6.84477285	      0.11946382	     -1.11391975	     15.69922395	      0.00000000	      0.00000000	      0.00000000	      0.00000000	     37.76346223	    -14.85258821	     37.76346223	     77.42659470	     44.64579104	      0.00000000	      0.00000000	     37.76346223	    -14.85258821	     37.76346223	     77.42659470	     44.64579104	      0.00000000	      0.00000000
      4.06000000	      3.98919462	     -1.44004990	     84.20339822	      0.23476909	      0.89964736	     -0.19149369	    -18.95767178	      0.63421308	    -10.06860681	     10.73561634	      0.18737185	      5.52480969	      7.25415701	      0.00000000	     27.17519136	    -11.01697981	    -27.91862454	      7.51249424	      0.13111776	     -1.50362025	     14.91780177	      0.00000000	      0.00000000	      0.00000000	      0.00000000	     37.76645671	    -14.85268873	     37.76645671	     77.42335013	     44.64710363	      0.00000000	      0.00000000	     37.76645671	    -14.85268873	     37.76645671	     77.42335013	     44.64710363	      0.00000000	      0.00000000
      4.06500000	      3.55879694	     -1.18444287	     84.02164943	      0.23430494	      0.89956971	     -0.19913595	    -19.39997494	     -0.05840043	     -9.89298451	     11.17558125	      0.19505069	      4.88483993	      7.00990309	      0.00000000	     26.86629616	    -10.69009364	    -28.05993737	      8.20230480	      0.14315722	     -1.92227250	     14.02600390	      0.00000000	      0.00000000	      0.00000000	      0.00000000	     37.76921891	    -14.85278143	     37.76921891	     77.42036011	     44.64831035	      0.00000000	      0.00000000	     37.76921891	    -14.85278143	     37.76921891	     77.42036011	     44.64831035	      0.00000000	      0.00000000
      4.07000000	      2.62268203	     -0.56085413	     83.44354119	      0.23466560	      0.90020980	     -0.20683273	    -20.07068542	     -1.44170266	     -9.53534879	     11.82508167	      0.20638661	      4.44424737	      6.65270424	      0.00000000	     25.77131101	     -9.83213819	    -28.46326542	      8.25885443	      0.14414420	     -2.73032198	     12.70815997	      0.00000000	      0.00000000	      0.00000000	      0.00000000	     37.78706099	    -14.85337973	     37.78706099	     77.40109984	     44.65602349	      0.00000000	      0.00000000	     37.78706099	    -14.85337973	     37.78706099	     77.40109984	     44.65602349	      0.00000000	      0.00000000
      4.07500000	      2.19352782	     -0.25951582	     83.34193159	      0.23414557	      0.90034930	     -0.21453424	    -20.51255987	     -2.11743272	     -9.46454010	     12.30969072	      0.21484463	      3.57320255	      6.37446891	      0.00000000	     25.48429309	     -9.51540859	    -28.55255969	      9.16448071	      0.15995036	     -3.22376627	     11.75944709	      0.00000000	      0.00000000	      0.00000000	      0.00000000	     37.79023718	    -14.85348612	     37.79023718	     77.39768382	     44.65737937	      0.00000000	      0.00000000	     37.79023718	    -14.85348612	     37.79023718	     77.39768382	     44.65737937	      0.00000000	      0.00000000
